<svg xmlns="http://www.w3.org/2000/svg" viewBox="0 0 168.93 135.48"><defs><style>.cls-1{fill:#24aae2;}.cls-2{fill:#fff;}.cls-3{fill:#231f20;}</style></defs><g id="Layer_2" data-name="Layer 2"><g id="Layer_1-2" data-name="Layer 1"><polygon class="cls-1" points="107.98 71.78 84.13 64.12 60.95 71.78 60.95 50.62 107.98 50.62 107.98 71.78"></polygon><polygon class="cls-2" points="84.15 18.16 48.02 37.13 48.02 80.96 56.45 80.96 56.45 46.45 112.47 46.45 112.47 80.96 120.91 80.96 120.91 37.13 84.15 18.16"></polygon><path class="cls-2" d="M20.74,109.37h0a122.53,122.53,0,0,1,17.81-2.28c17.77-1,57.94-2.48,100.28.6l9.53,1.16,5.35-26.77s-67.5-8-138.5,0Z"></path><path class="cls-3" d="M34.51,85.2c4.06-.32,6.09-.47,10.16-.72L44.83,87c-2.72.17-4.07.27-6.79.47.15,1.93.22,2.9.36,4.83,2.45-.18,3.67-.26,6.12-.42l.16,2.49c-2.44.16-3.66.24-6.1.42L39,99.9c2.85-.21,4.28-.3,7.13-.48l.15,2.52c-4.14.25-6.22.4-10.36.72C35.33,95.68,35.06,92.18,34.51,85.2Z"></path><path class="cls-3" d="M46.12,84.39,50,84.17c1.75,2.34,2.62,3.51,4.34,5.86,1.37-2.5,2.06-3.75,3.46-6.24l3.53-.14c-2.07,3.58-3.1,5.37-5.11,9,2.48,3.4,3.7,5.11,6.11,8.54-1.49,0-2.23.08-3.72.15-1.77-2.49-2.66-3.72-4.47-6.19-1.39,2.62-2.09,3.94-3.45,6.57-1.37.07-2,.11-3.41.2,2-3.74,3-5.6,5-9.32C49.82,89.28,48.6,87.65,46.12,84.39Z"></path><path class="cls-3" d="M70.16,94.7l-2.81.07c.07,2.48.1,3.73.17,6.21l-3.27.1c-.23-7-.34-10.5-.57-17.51,2.49-.08,3.73-.12,6.22-.17,2.17-.05,3.74.5,4.62,1.63a7.22,7.22,0,0,1,.13,7.83C73.79,94,72.3,94.65,70.16,94.7Zm-2.88-2.45,2.31-.06q2.88-.07,2.82-3.19c0-2.09-1-3.12-3-3.07L67.1,86C67.17,88.49,67.21,89.75,67.28,92.25Z"></path><path class="cls-3" d="M78.42,83.26c2.52,0,3.78,0,6.3,0,2.29,0,3.89.59,4.76,1.77a5.71,5.71,0,0,1,1.1,3.56c0,2.41-1,4-2.91,4.78a5.08,5.08,0,0,1,.91,1.44c1.06,2.4,1.59,3.6,2.63,6l-3.48,0c-1-2.28-1.49-3.42-2.5-5.69a2.32,2.32,0,0,0-.74-1,2.23,2.23,0,0,0-1.2-.26H81.83l0,6.93-3.26,0C78.53,93.77,78.49,90.26,78.42,83.26Zm3.4,8h2.51a2.81,2.81,0,0,0,2.19-.79,2.89,2.89,0,0,0,.73-2,2.62,2.62,0,0,0-2.92-2.77H81.8Z"></path><path class="cls-3" d="M94.73,83.3c4.07.07,6.11.12,10.18.24,0,1,0,1.52-.08,2.52-2.72-.08-4.08-.12-6.79-.18,0,1.94-.06,2.91-.11,4.85,2.46,0,3.68.08,6.13.16,0,1,0,1.5-.07,2.49-2.44-.07-3.66-.1-6.11-.15l-.1,5.13c2.85.06,4.28.1,7.14.19,0,1,0,1.51-.09,2.52-4.15-.13-6.22-.18-10.37-.25C94.56,93.81,94.62,90.31,94.73,83.3Z"></path><path class="cls-3" d="M118.46,93.47a4.91,4.91,0,0,1,.88,3.5,4.7,4.7,0,0,1-1.79,3.6,7,7,0,0,1-4.73,1.15c-2-.1-3.51-.59-4.39-1.5a6.13,6.13,0,0,1-1.55-3.86l2.65-.31a3.41,3.41,0,0,0,.89,2.24,3.35,3.35,0,0,0,2.3.88c2.13.09,3.24-.66,3.32-2.27a1.93,1.93,0,0,0-.53-1.59,5.87,5.87,0,0,0-2.28-1.07l-1.37-.4a6.82,6.82,0,0,1-3.41-1.91,5.14,5.14,0,0,1-.92-3.55,4.65,4.65,0,0,1,1.68-3.65,6.75,6.75,0,0,1,4.66-1.18c2,.1,3.48.61,4.33,1.53A6.16,6.16,0,0,1,119.66,89l-2.67.27c-.11-2-1.11-3-3-3.12a3.37,3.37,0,0,0-2.31.55,2.23,2.23,0,0,0-.81,1.71,2.11,2.11,0,0,0,.49,1.63,5.23,5.23,0,0,0,2.11,1l1.52.48A7.11,7.11,0,0,1,118.46,93.47Z"></path><path class="cls-3" d="M133.11,94.42a4.88,4.88,0,0,1,.8,3.53A4.67,4.67,0,0,1,132,101.5a7,7,0,0,1-4.76,1,6.39,6.39,0,0,1-4.35-1.59,6.16,6.16,0,0,1-1.46-3.9l2.66-.25a3.36,3.36,0,0,0,.84,2.25,3.28,3.28,0,0,0,2.27.94c2.13.14,3.26-.58,3.38-2.19a1.94,1.94,0,0,0-.49-1.6,6,6,0,0,0-2.26-1.13l-1.36-.42a6.82,6.82,0,0,1-3.37-2,5.15,5.15,0,0,1-.84-3.57,4.7,4.7,0,0,1,1.77-3.61,6.78,6.78,0,0,1,4.69-1.06c2,.14,3.47.68,4.29,1.62A6.18,6.18,0,0,1,134.42,90l-2.67.2c-.07-2-1.05-3.06-2.93-3.19a3.34,3.34,0,0,0-2.33.51,2.22,2.22,0,0,0-.85,1.68,2.13,2.13,0,0,0,.46,1.64,5.12,5.12,0,0,0,2.09,1.08l1.5.52A7.06,7.06,0,0,1,133.11,94.42Z"></path><polygon class="cls-2" points="13.82 86.93 19.93 115.24 4.16 116.49 7.82 102.08 0 88.62 13.82 86.93"></polygon><polygon class="cls-2" points="155.1 86.93 149 115.24 164.77 116.49 161.1 102.08 168.93 88.62 155.1 86.93"></polygon><path class="cls-2" d="M32.18,109.83a68,68,0,0,0,13.36,12.28c17.27-.78,46.08-1.52,77.6,0a67.87,67.87,0,0,0,13.32-12.23A842.23,842.23,0,0,0,32.18,109.83Z"></path><path class="cls-3" d="M50.79,117.57a2.79,2.79,0,0,1-.81.92,2.58,2.58,0,0,1-1.43.45,2.13,2.13,0,0,1-1.82-.85,4,4,0,0,1-.79-2.42l-.07-1.74a4.14,4.14,0,0,1,.59-2.49,2.11,2.11,0,0,1,1.71-1,2,2,0,0,1,1.73.64,2.8,2.8,0,0,1,.64,1.89v0l-1.14.06a1.65,1.65,0,0,0-.32-1,.92.92,0,0,0-.82-.33,1,1,0,0,0-.88.64,3,3,0,0,0-.29,1.54l.07,1.75a3,3,0,0,0,.4,1.51,1,1,0,0,0,1,.55,1.65,1.65,0,0,0,.67-.16,1,1,0,0,0,.38-.32l-.06-1.61-1.16.06,0-1.15,2.38-.12C50.72,115.64,50.75,116.28,50.79,117.57Z"></path><path class="cls-3" d="M55.83,116.72l-1.94.09c-.14.72-.21,1.08-.34,1.81l-1.25.06c.69-3.37,1.05-5.05,1.76-8.41l1.24,0c.9,3.29,1.35,4.94,2.24,8.23l-1.25,0C56.11,117.79,56,117.43,55.83,116.72Zm-1.68-1.23,1.35-.06c-.29-1.16-.44-1.74-.74-2.9h0C54.5,113.71,54.38,114.3,54.15,115.49Z"></path><path class="cls-3" d="M60.28,115.06c0,1.33,0,2,.08,3.33l-1.24,0c-.09-3.32-.13-5-.21-8.31l2.17-.08a2.15,2.15,0,0,1,1.68.6,2.47,2.47,0,0,1,.64,1.79,2.23,2.23,0,0,1-.23,1.12,1.92,1.92,0,0,1-.73.77,1.35,1.35,0,0,1,.81.7,2.85,2.85,0,0,1,.27,1.25v.61a3.83,3.83,0,0,0,.09.73,1,1,0,0,0,.25.55v.12l-1.28,0a1,1,0,0,1-.23-.6,7.78,7.78,0,0,1-.07-.82v-.58a1.54,1.54,0,0,0-.28-1,.81.81,0,0,0-.73-.33Zm0-1.28.89,0a1,1,0,0,0,.78-.32,1.35,1.35,0,0,0,.23-.89,1.44,1.44,0,0,0-.27-.9.9.9,0,0,0-.77-.31l-.92,0Z"></path><path class="cls-3" d="M69,116.4l-1.88,0c-.14.72-.22,1.08-.36,1.8l-1.21,0c.72-3.34,1.08-5,1.82-8.36l1.2,0c.83,3.31,1.25,5,2.06,8.28l-1.21,0C69.24,117.47,69.16,117.11,69,116.4Zm-1.61-1.28,1.31,0c-.27-1.16-.41-1.75-.69-2.91h0Z"></path><path class="cls-3" d="M76.72,117a2.46,2.46,0,0,1-.73.89,2,2,0,0,1-1.25.39,1.8,1.8,0,0,1-1.56-.93,4.46,4.46,0,0,1-.63-2.45v-1.74a4.73,4.73,0,0,1,.56-2.47,1.77,1.77,0,0,1,1.52-1,1.71,1.71,0,0,1,1.49.7,3.27,3.27,0,0,1,.51,1.93v0h-1a1.8,1.8,0,0,0-.25-1,.8.8,0,0,0-.71-.36.92.92,0,0,0-.78.61,3.36,3.36,0,0,0-.28,1.52l0,1.75a3.35,3.35,0,0,0,.31,1.53.92.92,0,0,0,.82.59,1.36,1.36,0,0,0,.59-.13,1,1,0,0,0,.33-.31v-1.61h-1v-1.15l2.08,0C76.71,115,76.71,115.67,76.72,117Z"></path><path class="cls-3" d="M82.41,114.42h-2v2.38H82.8v1.28H79.3c0-3.33,0-5,0-8.32h3.52v1.29H80.38v2.09c.82,0,1.22,0,2,0Z"></path><path class="cls-3" d="M90.59,118.09c0-3.33,0-5,0-8.32l1.75,0a1.75,1.75,0,0,1,1.51,1,4.65,4.65,0,0,1,.58,2.51v1.37a4.73,4.73,0,0,1-.62,2.49,1.72,1.72,0,0,1-1.51,1Zm1-7c0,2.3,0,3.45,0,5.75h.74a.92.92,0,0,0,.8-.6,3.56,3.56,0,0,0,.31-1.57v-1.39a3.44,3.44,0,0,0-.29-1.57c-.2-.41-.46-.62-.79-.62Z"></path><path class="cls-3" d="M101.75,114.85a4.66,4.66,0,0,1-.67,2.52,1.86,1.86,0,0,1-1.66.95,1.89,1.89,0,0,1-1.62-1,4.77,4.77,0,0,1-.6-2.55l0-1.49a4.62,4.62,0,0,1,.66-2.52,1.82,1.82,0,0,1,1.65-1,1.9,1.9,0,0,1,1.64,1,4.6,4.6,0,0,1,.6,2.55Zm-1.07-1.53a3.63,3.63,0,0,0-.29-1.61,1,1,0,0,0-.88-.64.93.93,0,0,0-.87.6,3.61,3.61,0,0,0-.33,1.59l0,1.51a3.6,3.6,0,0,0,.29,1.61,1,1,0,0,0,.86.65.94.94,0,0,0,.88-.6,3.53,3.53,0,0,0,.34-1.61Z"></path><path class="cls-3" d="M108.59,115a4.74,4.74,0,0,1-.68,2.51,1.83,1.83,0,0,1-1.63.93,1.89,1.89,0,0,1-1.59-1,4.86,4.86,0,0,1-.57-2.55l0-1.5a4.58,4.58,0,0,1,.66-2.51,1.79,1.79,0,0,1,1.63-.94,1.91,1.91,0,0,1,1.61,1.06,4.82,4.82,0,0,1,.57,2.55Zm-1-1.55a3.66,3.66,0,0,0-.28-1.61,1,1,0,0,0-.86-.65.9.9,0,0,0-.86.59,3.6,3.6,0,0,0-.33,1.58l0,1.51a3.65,3.65,0,0,0,.28,1.62.94.94,0,0,0,.83.65.91.91,0,0,0,.87-.59,3.56,3.56,0,0,0,.35-1.59Z"></path><path class="cls-3" d="M112.27,115.21c0,1.33,0,2-.09,3.32l-1.1,0,.2-8.31,1.93.09a1.88,1.88,0,0,1,1.47.72,2.84,2.84,0,0,1,.48,1.83,2.4,2.4,0,0,1-.26,1.09,1.69,1.69,0,0,1-.68.72,1.43,1.43,0,0,1,.69.76,3.26,3.26,0,0,1,.17,1.27v.61a3.66,3.66,0,0,0,0,.73,1.18,1.18,0,0,0,.19.57v.12l-1.14-.05A1.17,1.17,0,0,1,114,118c0-.28,0-.55,0-.82l0-.58a1.81,1.81,0,0,0-.2-1,.72.72,0,0,0-.63-.38Zm0-1.28.79,0a.78.78,0,0,0,.7-.26,1.39,1.39,0,0,0,.26-.87,1.59,1.59,0,0,0-.21-.92.81.81,0,0,0-.67-.37l-.81,0Z"></path><path class="cls-3" d="M120.2,116.72a1.38,1.38,0,0,0-.18-.79,2,2,0,0,0-.7-.59,4,4,0,0,1-1.3-1.1,2.64,2.64,0,0,1-.41-1.63,2.55,2.55,0,0,1,.56-1.64,1.54,1.54,0,0,1,1.33-.57,1.67,1.67,0,0,1,1.34.78,3,3,0,0,1,.44,1.86v0l-1-.07a1.8,1.8,0,0,0-.2-1,.79.79,0,0,0-.64-.38.66.66,0,0,0-.59.27,1.19,1.19,0,0,0-.23.74,1.1,1.1,0,0,0,.2.71,2.55,2.55,0,0,0,.76.62,3.61,3.61,0,0,1,1.24,1.1,2.86,2.86,0,0,1,.38,1.67,2.5,2.5,0,0,1-.56,1.65,1.57,1.57,0,0,1-1.35.53,1.83,1.83,0,0,1-1.38-.75,2.94,2.94,0,0,1-.51-2v0l1,.06a1.81,1.81,0,0,0,.23,1.1.89.89,0,0,0,.7.39.7.7,0,0,0,.63-.24A1.16,1.16,0,0,0,120.2,116.72Z"></path><path class="cls-2" d="M151.71,75.76a68.53,68.53,0,0,0,.49-8c0-1.73-.08-3.44-.21-5.14L150.43,64c-.07-1.13-.16-2.26-.28-3.37l1.39-2.3a66.69,66.69,0,0,0-3.08-12.81l-1.16,1.8c-.34-1.07-.72-2.13-1.12-3.18l.77-2.62A67.58,67.58,0,0,0,140.7,30L140,32.05c-.61-.94-1.24-1.87-1.9-2.78l.08-2.74a67.61,67.61,0,0,0-9-9.61l-.12,2.15c-.83-.76-1.67-1.5-2.54-2.22l-.62-2.65a68.61,68.61,0,0,0-11.14-7l.43,2.12q-1.5-.79-3-1.5l-1.29-2.43A67.31,67.31,0,0,0,98.36,1.43l1,1.94c-1.09-.25-2.19-.48-3.31-.68L94.17.7A69,69,0,0,0,84.46,0c-1.15,0-2.3,0-3.44.09l1.41,1.63c-1.13,0-2.26.09-3.37.18L76.78.45A66.67,66.67,0,0,0,63,3.49l1.77,1.17c-1.08.33-2.15.7-3.2,1.09L59,5a68.67,68.67,0,0,0-11.65,6.11l2,.7c-.95.59-1.88,1.21-2.8,1.86l-2.75-.11a68.07,68.07,0,0,0-9.71,8.87l2.18.15c-.77.82-1.52,1.66-2.25,2.51l-2.67.6a66.79,66.79,0,0,0-7.15,11.06l2.1-.4c-.54,1-1.05,2-1.54,3l-2.41,1.24a67.28,67.28,0,0,0-4.07,12.51l1.92-.92c-.26,1.09-.5,2.19-.71,3.3l-2,1.82a68.17,68.17,0,0,0-.81,10.47c0,.89,0,1.77.07,2.65L18.42,69c0,1.13.07,2.26.15,3.37l-1.49,2.29a66.93,66.93,0,0,0,4.58,18.45l1.07-1.86q.6,1.58,1.29,3.12l-.64,2.67a67.88,67.88,0,0,0,6.82,11.24l2.66,3.31a68.77,68.77,0,0,0,9.46,9.15l3.22,2.36.2.19a66.43,66.43,0,0,0,9.41,5.52l-.47-2.13c1,.51,2,1,3,1.45l1.32,2.39a67,67,0,0,0,12.62,3.72l-1-1.89c1.1.23,2.21.44,3.33.62l1.85,1.93a67.59,67.59,0,0,0,8.59.57c1.54,0,3.05-.07,4.56-.17l-1.41-1.58c1.13,0,2.26-.13,3.38-.24l2.27,1.4a67.55,67.55,0,0,0,12.84-3l-1.78-1.16c1.08-.34,2.15-.71,3.2-1.11l2.59.79a67.62,67.62,0,0,0,13.5-7.44l3.4-2.57a67.7,67.7,0,0,0,9.39-9.23l2.57-3.33.07,0a67.11,67.11,0,0,0,6.74-11.32l-2.11.49c.51-1,1-2,1.43-3.07l2.36-1.33A67.06,67.06,0,0,0,151.08,80l-1.87,1c.22-1.1.42-2.21.59-3.33Zm-4-9.25c0,.41,0,.82,0,1.23A63.36,63.36,0,0,1,146.35,81l2.23-2.16q-.24,1.4-.54,2.76L146,82.66a62.15,62.15,0,0,1-5,13.63l2.7-1.51c-.39.85-.8,1.7-1.23,2.53l-2.25.52a63.32,63.32,0,0,1-8.37,11.91l-.14,1.31-1,0a64.13,64.13,0,0,1-11.07,9.39h1.19l-.8.66-.17.78-1.69-.5A63,63,0,0,1,103,128.27l3,.9c-.89.3-1.78.6-2.68.87l-2-1.29A63.08,63.08,0,0,1,86.88,131l2.66,1.64c-.93.07-1.87.12-2.81.15L85.16,131l-.7,0a63.6,63.6,0,0,1-13.75-1.51l2.14,2.24c-.92-.16-1.84-.35-2.76-.56L69,129.12A62.89,62.89,0,0,1,55.43,124l1.5,2.72c-.86-.4-1.7-.82-2.53-1.26l-.5-2.27a62.79,62.79,0,0,1-10.23-7.05l.84,3-.22-.18-1.94-2.15V115a63.64,63.64,0,0,1-9.67-10.86l.07,2.87-1-1.12-.68-.93.6-2.24a63.47,63.47,0,0,1-6.59-12.93l-.72,3c-.36-.86-.71-1.74-1-2.62l1.18-2.05A62.81,62.81,0,0,1,21.2,68.38L19.47,71c0-.94-.06-1.88-.07-2.83l1.81-1.54a63.08,63.08,0,0,1,1.88-14.38l-2.31,2.08c.2-.92.4-1.84.64-2.74l2.13-1a63.11,63.11,0,0,1,5.52-13.44l-2.74,1.41c.42-.83.86-1.66,1.32-2.48l2.29-.44A63.81,63.81,0,0,1,38.73,24l-3,.67c.62-.7,1.26-1.38,1.9-2.06l2.3.16a63.76,63.76,0,0,1,11.42-9l-3.08-.12c.78-.52,1.56-1,2.36-1.51l2.22.75A63.23,63.23,0,0,1,66.16,7.15l-2.95-.9q1.32-.46,2.67-.87l2,1.3A63,63,0,0,1,83.11,4.49L80.46,2.8c.94-.06,1.88-.09,2.82-.11l1.54,1.77A63.39,63.39,0,0,1,99.24,6.21l-2.11-2.3c.92.18,1.84.39,2.76.62l1,2.1A62.41,62.41,0,0,1,114.42,12L113,9.26c.84.41,1.68.84,2.5,1.28l.47,2.31a64.14,64.14,0,0,1,11.7,8.65l-.7-3c.7.61,1.4,1.23,2.08,1.87l-.14,2.31A63,63,0,0,1,138,34l.09-3.08c.53.77,1,1.55,1.54,2.35l-.72,2.2a63.43,63.43,0,0,1,5.93,13.25l.87-3q.48,1.32.9,2.67l-1.28,2a63.37,63.37,0,0,1,2.34,14.35l1.61-2.67c.08.94.15,1.87.19,2.81Z"></path></g></g></svg>